<svg width="15" height="15" viewBox="0 0 15 15" fill="none" xmlns="http://www.w3.org/2000/svg">
<path d="M0.333252 14.667C0.333252 13.2525 0.895155 11.896 1.89535 10.8958C2.89554 9.89556 4.2521 9.33366 5.66659 9.33366C7.08107 9.33366 8.43763 9.89556 9.43782 10.8958C10.438 11.896 10.9999 13.2525 10.9999 14.667H9.66659C9.66659 13.6061 9.24516 12.5887 8.49501 11.8386C7.74487 11.0884 6.72745 10.667 5.66659 10.667C4.60572 10.667 3.5883 11.0884 2.83816 11.8386C2.08801 12.5887 1.66659 13.6061 1.66659 14.667H0.333252ZM5.66659 8.66699C3.45659 8.66699 1.66659 6.87699 1.66659 4.66699C1.66659 2.45699 3.45659 0.666992 5.66659 0.666992C7.87659 0.666992 9.66659 2.45699 9.66659 4.66699C9.66659 6.87699 7.87659 8.66699 5.66659 8.66699ZM5.66659 7.33366C7.13992 7.33366 8.33325 6.14033 8.33325 4.66699C8.33325 3.19366 7.13992 2.00033 5.66659 2.00033C4.19325 2.00033 2.99992 3.19366 2.99992 4.66699C2.99992 6.14033 4.19325 7.33366 5.66659 7.33366ZM11.1893 9.80233C12.1261 10.2243 12.9212 10.9078 13.479 11.7708C14.0367 12.6338 14.3334 13.6395 14.3333 14.667H12.9999C13.0001 13.8963 12.7776 13.142 12.3593 12.4947C11.941 11.8474 11.3446 11.3348 10.6419 11.0183L11.1886 9.80233H11.1893ZM10.7306 2.27566C11.4023 2.55252 11.9766 3.02268 12.3806 3.62648C12.7846 4.23027 13.0002 4.94049 12.9999 5.66699C13.0002 6.58188 12.6584 7.46381 12.0416 8.13954C11.4248 8.81528 10.5777 9.23597 9.66659 9.31899V7.97699C10.1605 7.90625 10.6188 7.67901 10.9741 7.32863C11.3294 6.97826 11.563 6.52321 11.6407 6.03028C11.7183 5.53736 11.6359 5.03252 11.4055 4.58989C11.1751 4.14727 10.8089 3.79016 10.3606 3.57099L10.7306 2.27566Z" fill="#889096"/>
</svg>
