<svg width="16" height="14" viewBox="0 0 16 14" fill="none" xmlns="http://www.w3.org/2000/svg">
<path d="M12.6667 14.0003H3.33341C3.1566 14.0003 2.98703 13.93 2.86201 13.805C2.73699 13.68 2.66675 13.5104 2.66675 13.3336V7.33361H0.666748L7.55141 1.07494C7.67415 0.963257 7.83414 0.901367 8.00008 0.901367C8.16603 0.901367 8.32601 0.963257 8.44875 1.07494L15.3334 7.33361H13.3334V13.3336C13.3334 13.5104 13.2632 13.68 13.1382 13.805C13.0131 13.93 12.8436 14.0003 12.6667 14.0003ZM4.00008 12.6669H12.0001V6.10494L8.00008 2.46894L4.00008 6.10494V12.6669ZM5.33341 10.0003H10.6667V11.3336H5.33341V10.0003Z" fill="#889096"/>
</svg>
