<svg width="14" height="12" viewBox="0 0 14 12" fill="none" xmlns="http://www.w3.org/2000/svg">
<path d="M8.99992 0C9.36792 0 9.66659 0.298667 9.66659 0.666667V2H12.9999C13.3679 2 13.6666 2.29867 13.6666 2.66667V11.3333C13.6666 11.7013 13.3679 12 12.9999 12H0.999919C0.631919 12 0.333252 11.7013 0.333252 11.3333V2.66667C0.333252 2.29867 0.631919 2 0.999919 2H4.33325V0.666667C4.33325 0.298667 4.63192 0 4.99992 0H8.99992ZM9.66659 3.33333H4.33325V10.6667H9.66659V3.33333ZM1.66659 3.33333V10.6667H2.99992V3.33333H1.66659ZM8.33325 1.33333H5.66659V2H8.33325V1.33333ZM10.9999 3.33333V10.6667H12.3333V3.33333H10.9999Z" fill="#889096"/>
</svg>
