<svg width="12" height="15" viewBox="0 0 12 15" fill="none" xmlns="http://www.w3.org/2000/svg">
<path d="M4.64864 11H7.35131C7.43931 10.1986 7.84797 9.53732 8.51131 8.81532C8.58664 8.73398 9.06597 8.23732 9.12264 8.16665C9.5935 7.5784 9.88863 6.86913 9.97405 6.1205C10.0595 5.37187 9.93171 4.61434 9.60547 3.93514C9.27923 3.25594 8.76779 2.6827 8.13004 2.28143C7.4923 1.88016 6.75418 1.66719 6.00069 1.66703C5.24721 1.66686 4.509 1.87953 3.87108 2.28052C3.23316 2.68152 2.72147 3.25454 2.39495 3.9336C2.06842 4.61266 1.94033 5.37014 2.02543 6.1188C2.11054 6.86747 2.40537 7.57687 2.87597 8.16532C2.93331 8.23665 3.41397 8.73398 3.48797 8.81465C4.15197 9.53732 4.56064 10.1986 4.64864 11ZM7.33331 12.3333H4.66664V13H7.33331V12.3333ZM1.83597 8.99998C1.2081 8.21551 0.814605 7.26963 0.700816 6.27129C0.587027 5.27296 0.757573 4.26279 1.19281 3.35715C1.62804 2.4515 2.31026 1.68723 3.16088 1.15237C4.01149 0.617512 4.9959 0.333824 6.00069 0.333984C7.00549 0.334145 7.98981 0.61815 8.84025 1.15328C9.69069 1.68841 10.3727 2.4529 10.8076 3.35869C11.2426 4.26447 11.4128 5.27469 11.2987 6.27299C11.1846 7.27129 10.7908 8.21705 10.1626 9.00132C9.74931 9.51598 8.66664 10.3333 8.66664 11.3333V13C8.66664 13.3536 8.52616 13.6927 8.27611 13.9428C8.02607 14.1928 7.68693 14.3333 7.33331 14.3333H4.66664C4.31302 14.3333 3.97388 14.1928 3.72383 13.9428C3.47378 13.6927 3.33331 13.3536 3.33331 13V11.3333C3.33331 10.3333 2.24997 9.51598 1.83597 8.99998ZM6.66664 5.66932H8.33331L5.33331 9.66932V7.00265H3.66664L6.66664 2.99998V5.66998V5.66932Z" fill="#209CBC"/>
</svg>
